<svg xmlns="http://www.w3.org/2000/svg" version="1.1" xmlns:xlink="http://www.w3.org/1999/xlink" viewBox="0 0 10.326913993753443 3.7151658400202487"><g transform="matrix(0.7604724500641278,0,0,0.7604724500641278,3.4595660973648847,1.4400835449249183)"><g transform="matrix(1,0,0,1,0,0)" clip-path="url(#SvgjsClipPath116250)"><g clip-path="url(#SvgjsClipPath11624803ea6822-cd34-4d67-bcf1-d44a3841390e)"><path d=" M -1.225881114413066 1.520917018769877 C -1.1731611299540592 1.5112364762201298 -1.121610735701614 1.4960160112224528 -1.0720873733556409 1.4755087869498986 C -0.7647236568098852 1.3478277992026295 -0.5730266579908112 1.0383423306285968 -0.595623899642874 0.7062817133451618 C -0.6168101016869036 0.3853882628733898 -0.9682556057160725 0.005457651827704968 -1.2501031441890147 -0.2990940025552267 C -1.2920879958006597 -0.3445022343752057 -1.3327487097845525 -0.3883925523292253 -1.3699860435601114 -0.4295700029483385 C -1.6448576374575805 -0.1262455980740551 -2.236682564983267 0.3487645538521549 -2.3378014652879284 0.6943321786556935 C -2.3119646335269164 0.30500342005694026 -1.9341009690221123 -0.10305704156854656 -1.631551669100659 -0.43031281186146775 C -1.564343610482326 -0.5028174209908081 -1.5013340370251576 -0.5712527291177893 -1.44320116556288 -0.6387514520934338 L -1.3699537475204104 -0.7234962602695538 L -1.2967063294779406 -0.6387514520934338 C -1.238573458015663 -0.5712527291177893 -1.1755961805981958 -0.5028174209908081 -1.1083881219798628 -0.43047429205997395 C -0.8056773418599035 -0.10321852176705282 -0.42787826943450225 0.3048419398584341 -0.40213832579259345 0.6941706984571872 C -0.368894078394447 1.1975347903425944 -0.7268696903619394 1.6424212655920778 -1.2256873381748574 1.7176644926299853 L -1.2256873381748574 1.7518982947133268 C -1.2256693341536198 1.7902428425557027 -1.25668258580942 1.821371653602851 -1.2950269354134858 1.8214962602695528 L -1.3478955524044463 1.8214962602695528 L -1.3478955524044463 1.4443108125984758 L -1.2952207116516827 1.4443108125984758 C -1.2568711480136945 1.4444531742963562 -1.2258630544318043 1.475591250571417 -1.2258811144130661 1.513941074194404 Z" fill="#0094ff" transform="matrix(1,0,0,1,0,0)" fill-rule="nonzero"></path></g><g clip-path="url(#SvgjsClipPath11624803ea6822-cd34-4d67-bcf1-d44a3841390e)"><path d=" M -1.5122500984441853 1.717987453026998 C -1.7182436869819837 1.6877437535895443 -1.9089513466317158 1.591749889148094 -2.0559539268149862 1.4443108125984763 C -2.1177619120955105 1.3823776431696868 -2.1709863423849467 1.312436396917915 -2.2142045213511867 1.2363566129620274 L -2.2138815609541735 1.2363566129620274 C -2.265555224476198 1.146444438433706 -2.2907784314828863 1.0425803747544369 -2.2907784314828863 0.9411708100924643 C -2.2907784314828863 0.8524858850727897 -2.2714008076621273 0.7643822887677378 -2.233259184774933 0.6869040895244027 C -2.1939226084187915 0.6061639902712392 -2.134562487447866 0.5376317940251543 -2.0561799990928953 0.4928371869594992 C -1.9942038989061672 0.45744072744691255 -1.9211825531416065 0.4369973343160116 -1.8383109152681598 0.4369973343160116 L -1.8383109152681598 0.379316607409552 L -1.7952279983066717 0.379316607409552 C -1.7638240942848777 0.37938757185833527 -1.7383788625671528 0.4048183706596007 -1.738290080313341 0.43622222936318145 L -1.738290080313341 0.4310871590506802 L -1.5832690897472677 0.4310871590506802 L -1.5832690897472677 0.3896190440742555 C -1.5832690897472677 0.36297481132071163 -1.5838827145015917 0.3611662330974408 -1.5408966856592077 0.34178860927668153 C -1.4979106568168234 0.3224109854559223 -1.4637091507731839 0.290114945754657 -1.4637091507731839 0.24522345056989836 L -1.4637091507731839 0.17559318897397047 L -1.4002474327601973 0.17559318897397047 L -1.4002474327601973 0.07780078075853913 L -1.6475705047924867 0.07780078075853913 C -1.6727851356374983 0.0777299093091306 -1.6932130123473077 0.05731645906592464 -1.693301697009478 0.03210188458124874 L -1.6933016970094785 0.03210188458124874 C -1.6932131122220184 0.006882028683291352 -1.6727903606904475 -0.013540722848281117 -1.6475705047924885 -0.013629307635742993 L -1.0923692862880352 -0.013629307635742993 C -1.0671547118033595 -0.013540622973572392 -1.0467412615601535 0.006887253736236776 -1.046670390110745 0.03210188458124852 L -1.046670390110745 0.03210188458124852 C -1.046741352815591 0.057311235802390836 -1.067159935066888 0.07772981805369017 -1.0923692862880325 0.07780078075853913 L -1.3398538385188312 0.07780078075853913 L -1.3398538385188312 0.17559318897397025 L -1.27626293634704 0.17559318897397025 L -1.27626293634704 0.24522345056989825 C -1.27626293634704 0.2900180576355531 -1.2417707659460886 0.322733945852935 -1.1990754014610159 0.34178860927668153 C -1.1563800369759434 0.3608432727004278 -1.156702997372956 0.3629748113207114 -1.156702997372956 0.3896190440742553 L -1.156702997372956 0.43108715905067974 L -1.049835402001469 0.43108715905067974 C -0.8836060166267743 0.4314070368827607 -0.7489301175398484 0.5660829359696868 -0.7486102397077679 0.7323123213443812 L -0.7486102397077679 0.781951334365226 L -0.7537453100202693 0.781951334365226 C -0.7223978655746723 0.7821452234639992 -0.6970335771654133 0.8075095118732585 -0.6968396880666394 0.838856956318855 L -0.6968396880666399 0.838856956318855 L -0.6968396880666399 0.8818429851612393 L -1.0054929394916317 0.8818429851612393 L -1.0054929394916317 0.8388569563188555 C -1.0052990503928587 0.8075095118732591 -0.9799347619835996 0.7821452234639996 -0.9485873175380028 0.7819513343652256 L -0.9537223878505035 0.7819513343652256 L -0.9537223878505035 0.7323123213443816 C -0.9540919661610601 0.6794557570222668 -0.99684965352055 0.6366980696627773 -1.0497062178426644 0.6363284913522209 L -1.1441398379291634 0.6363284913522209 C -1.1808142066861864 0.72897214090114 -1.2703474209006778 0.789822421087085 -1.3699860435601117 0.789822421087085 C -1.4696246662195454 0.789822421087085 -1.5591578804340371 0.72897214090114 -1.59583224919106 0.6363284913522209 L -1.738386968432445 0.6363284913522209 L -1.738386968432445 0.6311934210397201 C -1.738475478630683 0.66255960652517 -1.7638619335727763 0.6879749097115133 -1.7952279983066735 0.6880990429933496 L -1.8383109152681598 0.6880990429933496 L -1.8383109152681598 0.6307735725236034 C -1.8858183896687208 0.6307735725236034 -1.9263822155335102 0.6419480022602411 -1.9600023928625272 0.661034961723689 C -2.0036020464592355 0.6861612806112733 -2.03689926339124 0.7252071926101031 -2.0598940436585407 0.7715197135417176 C -2.08411607343449 0.8214816869595751 -2.0968407130767885 0.8801958871364755 -2.0968407130767885 0.9410416259336591 C -2.0968407130767885 1.0100905588149645 -2.079885292233624 1.0799145966491 -2.045683786189984 1.1399529344537522 L -2.2139784490732777 1.236356612962029 L -2.046039042626698 1.1400821186125571 C -2.0112523593047476 1.201173305543827 -1.9684942384819712 1.2573659692819639 -1.9188895343228167 1.3071818280269034 C -1.808181085286127 1.4180715226268905 -1.6663949758146288 1.4927094245625185 -1.5123146905235874 1.5212076831271886 L -1.5123146905235874 1.5139410741944044 C -1.5122083257135999 1.4755420827396524 -1.4811156629440247 1.4444349918203012 -1.4427167249673605 1.4443108125984763 L -1.3900418842145974 1.4443108125984763 L -1.3900418842145974 1.8214962602695537 L -1.4426521328879587 1.8214962602695537 C -1.4810458472881272 1.8213898075831492 -1.512143645757781 1.7902920091134953 -1.5122500984441856 1.7518982947133268 Z M -1.7952279983066717 0.379316607409552 Z M -1.0054929394916317 0.8388569563188555 Z" fill="#006fbf" transform="matrix(1,0,0,1,0,0)" fill-rule="nonzero"></path></g><g clip-path="url(#SvgjsClipPath11624803ea6822-cd34-4d67-bcf1-d44a3841390e)"><path d=" M -1.7677763645605964 1.1927246633256194 C -1.7761872439213695 1.2385647047883945 -1.800389592664794 1.2800103699878278 -1.836179376647876 1.3098623993221086 C -1.8186103310503878 1.3247185775846906 -1.8001692923809653 1.3389288350532471 -1.7816959576718416 1.3518472509337536 C -1.7757466980002796 1.3463987610443895 -1.7700871264724716 1.3406421682903904 -1.7647405368286773 1.334601165733277 C -1.7144472078278454 1.3906684420282374 -1.6426823343540309 1.4227008038735867 -1.5673632901943946 1.4227008038735867 C -1.4920442460347583 1.4227008038735867 -1.4202793725609435 1.3906684420282374 -1.3699860435601117 1.3346011657332775 C -1.3196927145592798 1.3906684420282374 -1.247927841085465 1.4227008038735867 -1.1726087969258288 1.4227008038735867 C -1.0972897527661927 1.4227008038735867 -1.025524879292378 1.3906684420282374 -0.9752315502915461 1.3346011657332775 C -0.9697735195820321 1.3406405251574145 -0.9640248245152068 1.3463892202242396 -0.9582761294483817 1.3518472509337536 C -0.9393852473378372 1.338825716130911 -0.9211985459299243 1.3248110677430707 -0.9037927104723467 1.3098623993221086 C -0.9397043009296158 1.2801135749716903 -0.9639345850412122 1.2386200714434747 -0.9721957225596269 1.1927246633256194 L -0.9781381938646598 1.1927246633256194 C -0.9950517288494882 1.2867899919487424 -1.0769057998543898 1.3552388462610976 -1.1724796127670238 1.3552388462610976 C -1.2680534256796578 1.3552388462610976 -1.3499074966845597 1.2867899919487424 -1.3668210316693878 1.1927246633256194 L -1.3728926871332257 1.1927246633256194 C -1.389806222118054 1.2867899919487424 -1.4716602931229557 1.3552388462610971 -1.5672341060355897 1.3552388462610971 C -1.6628079189482234 1.3552388462610971 -1.744661989953125 1.2867899919487424 -1.7615755249379534 1.1927246633256194 Z M -1.7677763645605964 0.9541538180523725 C -1.7844922702197643 1.0483366576264403 -1.8664470498361423 1.1169024479852312 -1.9621016354431098 1.116732081908542 C -1.9745837468296323 1.116725821387416 -1.9870421623594101 1.115645299658901 -1.9993389692186685 1.1135024779384157 C -1.9926859850402077 1.1256134928263903 -1.985419376107423 1.137401547317352 -1.9775714384600156 1.1492218978480149 C -1.9697235008126082 1.161042248378678 -1.9618109710857983 1.1728303028696396 -1.9533494086840666 1.1843276930032907 C -1.8811192724580543 1.1820986046638173 -1.812956126538988 1.150374729559704 -1.7647405368286773 1.0965470570952511 C -1.7144472078278454 1.152614333390211 -1.6426823343540309 1.1846466952355605 -1.5673632901943946 1.1846466952355605 C -1.4920442460347583 1.1846466952355605 -1.4202793725609435 1.152614333390211 -1.3699860435601117 1.0965470570952514 C -1.3196927145592798 1.152614333390211 -1.247927841085465 1.1846466952355605 -1.1726087969258288 1.1846466952355605 C -1.0972897527661927 1.1846466952355605 -1.025524879292378 1.152614333390211 -0.9752315502915461 1.0965470570952514 C -0.9270090602765917 1.1503654215386865 -0.8588501363435814 1.1820873316842209 -0.7866226784361567 1.1843276930032898 C -0.7781611160344253 1.17283030286964 -0.7699902179900053 1.161042248378678 -0.762400648660208 1.1492218978480149 C -0.7548110793304106 1.137401547317352 -0.7472861020800157 1.1256134928263903 -0.7406008218618538 1.1135024779384157 C -0.7528978143327749 1.1156438742866481 -0.7653561068106778 1.116724385342841 -0.7778381556374123 1.1167320819085422 C -0.8735049241958135 1.116918147658317 -0.9554777119994498 1.0483486870728227 -0.9721957225596269 0.9541538180523723 L -0.9781381938646598 0.9541538180523723 C -0.9950517288494882 1.0482191466754962 -1.0769057998543898 1.1166680009878507 -1.1724796127670238 1.1166680009878507 C -1.2680534256796578 1.1166680009878507 -1.3499074966845597 1.0482191466754962 -1.3668210316693878 0.9541538180523725 L -1.3728926871332257 0.9541538180523725 C -1.389806222118054 1.0482191466754962 -1.4716602931229557 1.1166680009878502 -1.5672341060355897 1.1166680009878502 C -1.6628079189482234 1.1166680009878502 -1.744661989953125 1.0482191466754962 -1.7615755249379534 0.9541538180523725 Z" fill="#0094ff" transform="matrix(1,0,0,1,0,0)" fill-rule="evenodd"></path></g></g><g><path d=" M 0.5745 1.1159999999999999 Q 0.41400000000000003 1.1159999999999999 0.3 1.05975 Q 0.186 1.0034999999999998 0.12675 0.8849999999999999 Q 0.0675 0.7664999999999998 0.0675 0.5834999999999999 Q 0.0675 0.3134999999999999 0.20025 0.1822499999999998 Q 0.333 0.050999999999999934 0.5745 0.050999999999999934 Q 0.7065 0.050999999999999934 0.8115 0.09599999999999986 Q 0.9165 0.1409999999999998 0.9772500000000001 0.23099999999999987 Q 1.038 0.32099999999999984 1.038 0.4574999999999999 L 0.8130000000000001 0.4574999999999999 Q 0.8130000000000001 0.38549999999999984 0.7837500000000001 0.33599999999999985 Q 0.7545000000000001 0.28649999999999987 0.70125 0.26024999999999987 Q 0.648 0.23399999999999987 0.5775 0.23399999999999987 Q 0.4815 0.23399999999999987 0.41925 0.27149999999999985 Q 0.357 0.30899999999999983 0.32775 0.3817499999999998 Q 0.2985 0.4544999999999999 0.2985 0.5594999999999999 L 0.2985 0.6059999999999999 Q 0.2985 0.7139999999999999 0.3285 0.7867499999999998 Q 0.3585 0.8594999999999998 0.41925 0.8962499999999999 Q 0.48 0.9329999999999998 0.5760000000000001 0.9329999999999998 Q 0.651 0.9329999999999998 0.7065 0.9074999999999999 Q 0.762 0.8819999999999999 0.792 0.8324999999999998 Q 0.8220000000000001 0.7829999999999999 0.8220000000000001 0.7109999999999999 L 1.038 0.7109999999999999 Q 1.038 0.8474999999999999 0.97875 0.9374999999999999 Q 0.9195 1.0274999999999999 0.8145 1.0717499999999998 Q 0.7095 1.1159999999999999 0.5745 1.1159999999999999 M 1.1954567871093753 1.0979999999999999 L 1.1954567871093753 0.013499999999999845 L 1.4039567871093752 0.013499999999999845 L 1.4039567871093752 1.0979999999999999 L 1.1954567871093753 1.0979999999999999 M 1.9545000000000003 1.1159999999999999 Q 1.8240000000000003 1.1159999999999999 1.7355000000000003 1.0717499999999998 Q 1.6470000000000002 1.0274999999999999 1.6020000000000003 0.9359999999999998 Q 1.5570000000000002 0.8444999999999998 1.5570000000000002 0.7034999999999998 Q 1.5570000000000002 0.5609999999999998 1.6020000000000003 0.47024999999999983 Q 1.6470000000000002 0.37949999999999984 1.7347500000000002 0.3352499999999998 Q 1.8225000000000002 0.2909999999999998 1.9500000000000002 0.2909999999999998 Q 2.0700000000000003 0.2909999999999998 2.1525000000000003 0.3337499999999999 Q 2.2350000000000003 0.37649999999999983 2.277 0.4657499999999999 Q 2.3190000000000004 0.5549999999999998 2.3190000000000004 0.6959999999999998 L 2.3190000000000004 0.7499999999999998 L 1.7685000000000002 0.7499999999999998 Q 1.7715000000000003 0.8189999999999998 1.7902500000000003 0.8669999999999999 Q 1.8090000000000002 0.9149999999999998 1.8487500000000003 0.9382499999999998 Q 1.8885000000000003 0.9614999999999998 1.9545000000000003 0.9614999999999998 Q 1.9905000000000002 0.9614999999999998 2.01975 0.9524999999999999 Q 2.0490000000000004 0.9434999999999999 2.0700000000000003 0.9254999999999999 Q 2.091 0.9074999999999999 2.103 0.8804999999999998 Q 2.115 0.8534999999999999 2.115 0.8189999999999998 L 2.3190000000000004 0.8189999999999998 Q 2.3190000000000004 0.8939999999999999 2.2920000000000003 0.9494999999999999 Q 2.265 1.005 2.217 1.04175 Q 2.1690000000000005 1.0784999999999998 2.10225 1.0972499999999998 Q 2.0355000000000003 1.1159999999999999 1.9545000000000003 1.1159999999999999 M 1.7715000000000003 0.6179999999999999 L 2.1045000000000003 0.6179999999999999 Q 2.1045000000000003 0.5729999999999998 2.0932500000000003 0.5399999999999998 Q 2.0820000000000003 0.5069999999999999 2.0625 0.4859999999999999 Q 2.043 0.46499999999999986 2.01525 0.4552499999999998 Q 1.9875000000000003 0.4454999999999999 1.9530000000000003 0.4454999999999999 Q 1.8960000000000004 0.4454999999999999 1.8577500000000002 0.46424999999999983 Q 1.8195000000000001 0.4829999999999999 1.7992500000000002 0.5212499999999999 Q 1.7790000000000004 0.5594999999999999 1.7715000000000003 0.6179999999999999 M 2.6804765625 1.1159999999999999 Q 2.6414765625 1.1159999999999999 2.5972265625 1.1069999999999998 Q 2.5529765625 1.0979999999999999 2.5139765625 1.0747499999999999 Q 2.4749765625 1.0514999999999999 2.4502265625 1.00725 Q 2.4254765625 0.9629999999999999 2.4254765625 0.8939999999999999 Q 2.4254765625 0.8114999999999999 2.4614765625 0.7574999999999998 Q 2.4974765625 0.7034999999999998 2.5642265625 0.6727499999999998 Q 2.6309765625 0.6419999999999999 2.7239765625 0.6299999999999999 Q 2.8169765625 0.6179999999999999 2.9294765625 0.6179999999999999 L 2.9294765625 0.5594999999999999 Q 2.9294765625 0.5249999999999998 2.9182265625 0.49949999999999983 Q 2.9069765625 0.47399999999999987 2.8792265625 0.45899999999999985 Q 2.8514765625000003 0.44399999999999984 2.8019765625 0.44399999999999984 Q 2.7524765625 0.44399999999999984 2.7217265625 0.45599999999999985 Q 2.6909765625 0.46799999999999986 2.6782265625 0.4867499999999999 Q 2.6654765625 0.5054999999999998 2.6654765625 0.5279999999999998 L 2.6654765625 0.5459999999999998 L 2.4629765625 0.5459999999999998 Q 2.4614765625 0.5384999999999999 2.4614765625 0.5317499999999998 Q 2.4614765625 0.5249999999999998 2.4614765625 0.5144999999999998 Q 2.4614765625 0.4454999999999999 2.5034765625 0.3952499999999999 Q 2.5454765625 0.34499999999999986 2.6219765625 0.31799999999999984 Q 2.6984765625 0.2909999999999998 2.8004765625 0.2909999999999998 Q 2.9099765625 0.2909999999999998 2.9842265625 0.3194999999999999 Q 3.0584765625 0.34799999999999986 3.0982265625 0.40349999999999986 Q 3.1379765625 0.45899999999999985 3.1379765625 0.5429999999999998 L 3.1379765625 0.9014999999999999 Q 3.1379765625 0.9284999999999999 3.1537265625 0.9412499999999999 Q 3.1694765625 0.9539999999999998 3.1889765625 0.9539999999999998 L 3.2384765625 0.9539999999999998 L 3.2384765625 1.0904999999999998 Q 3.2234765625 1.0979999999999999 3.1919765625 1.10625 Q 3.1604765625 1.1144999999999998 3.1154765625 1.1144999999999998 Q 3.0719765625 1.1144999999999998 3.0382265625000002 1.1017499999999998 Q 3.0044765625 1.089 2.9819765625 1.06575 Q 2.9594765625 1.0424999999999998 2.9504765625 1.0094999999999998 L 2.9399765625 1.0094999999999998 Q 2.9144765625 1.041 2.8777265625 1.065 Q 2.8409765625 1.089 2.7922265625 1.1024999999999998 Q 2.7434765625 1.1159999999999999 2.6804765625 1.1159999999999999 M 2.7509765625 0.9584999999999999 Q 2.7929765625 0.9584999999999999 2.8259765625 0.9457499999999999 Q 2.8589765625 0.9329999999999998 2.8814765625 0.9112499999999999 Q 2.9039765625 0.8894999999999998 2.9167265625 0.8579999999999999 Q 2.9294765625 0.8264999999999998 2.9294765625 0.7904999999999999 L 2.9294765625 0.7469999999999999 Q 2.8454765625 0.7469999999999999 2.7794765625 0.7582499999999999 Q 2.7134765625 0.7694999999999999 2.6752265625 0.7964999999999999 Q 2.6369765625 0.8234999999999999 2.6369765625 0.8714999999999998 Q 2.6369765625 0.8984999999999999 2.6504765625 0.9179999999999999 Q 2.6639765625000003 0.9374999999999999 2.6894765625 0.9479999999999998 Q 2.7149765625 0.9584999999999999 2.7509765625 0.9584999999999999 M 3.342002197265625 1.0979999999999999 L 3.342002197265625 0.30899999999999983 L 3.514502197265625 0.30899999999999983 L 3.531002197265625 0.43199999999999983 L 3.541502197265625 0.43199999999999983 Q 3.556502197265625 0.3929999999999999 3.5805021972656252 0.3607499999999999 Q 3.604502197265625 0.3284999999999999 3.640502197265625 0.30899999999999983 Q 3.676502197265625 0.28949999999999987 3.724502197265625 0.28949999999999987 Q 3.750002197265625 0.28949999999999987 3.771002197265625 0.29474999999999985 Q 3.7920021972656253 0.2999999999999998 3.8025021972656248 0.3044999999999999 L 3.8025021972656248 0.4934999999999998 L 3.738002197265625 0.4934999999999998 Q 3.691502197265625 0.4934999999999998 3.656252197265625 0.5062499999999999 Q 3.621002197265625 0.5189999999999999 3.597002197265625 0.5459999999999998 Q 3.573002197265625 0.5729999999999998 3.561752197265625 0.6119999999999999 Q 3.550502197265625 0.6509999999999998 3.550502197265625 0.7034999999999998 L 3.550502197265625 1.0979999999999999 L 3.342002197265625 1.0979999999999999 M 3.948009521484375 1.0979999999999999 L 3.948009521484375 0.4694999999999998 L 3.835509521484375 0.4694999999999998 L 3.835509521484375 0.30899999999999983 L 3.948009521484375 0.30899999999999983 L 3.948009521484375 0.22199999999999986 Q 3.948009521484375 0.15749999999999986 3.969759521484375 0.10724999999999985 Q 3.991509521484375 0.05699999999999994 4.039509521484375 0.028499999999999748 Q 4.087509521484375 -2.220446049250313e-16 4.167009521484375 -2.220446049250313e-16 Q 4.189509521484375 -2.220446049250313e-16 4.214259521484375 0.0029999999999998916 Q 4.239009521484375 0.005999999999999783 4.262259521484375 0.01124999999999976 Q 4.285509521484375 0.016499999999999737 4.302009521484375 0.022499999999999742 L 4.302009521484375 0.16049999999999986 L 4.227009521484375 0.16049999999999986 Q 4.191009521484375 0.16049999999999986 4.173759521484375 0.17849999999999988 Q 4.1565095214843755 0.1964999999999999 4.1565095214843755 0.23099999999999987 L 4.1565095214843755 0.30899999999999983 L 4.302009521484375 0.30899999999999983 L 4.302009521484375 0.4694999999999998 L 4.1565095214843755 0.4694999999999998 L 4.1565095214843755 1.0979999999999999 L 3.948009521484375 1.0979999999999999 M 4.399509521484375 1.0979999999999999 L 4.399509521484375 0.013499999999999845 L 4.606509521484375 0.013499999999999845 L 4.606509521484375 1.0979999999999999 L 4.399509521484375 1.0979999999999999 M 5.1615146484375 1.1159999999999999 Q 5.0325146484375 1.1159999999999999 4.9425146484375 1.0717499999999998 Q 4.8525146484375 1.0274999999999999 4.8060146484375 0.9352499999999999 Q 4.7595146484375 0.8429999999999999 4.7595146484375 0.7034999999999998 Q 4.7595146484375 0.5609999999999998 4.8060146484375 0.47024999999999983 Q 4.8525146484375 0.37949999999999984 4.9425146484375 0.3352499999999998 Q 5.0325146484375 0.2909999999999998 5.1615146484375 0.2909999999999998 Q 5.2935146484375 0.2909999999999998 5.3827646484375 0.3352499999999998 Q 5.4720146484375 0.37949999999999984 5.5185146484375 0.47024999999999983 Q 5.5650146484375 0.5609999999999998 5.5650146484375 0.7034999999999998 Q 5.5650146484375 0.8429999999999999 5.5185146484375 0.9352499999999999 Q 5.4720146484375 1.0274999999999999 5.3827646484375 1.0717499999999998 Q 5.2935146484375 1.1159999999999999 5.1615146484375 1.1159999999999999 M 5.1615146484375 0.9539999999999998 Q 5.2305146484375005 0.9539999999999998 5.2717646484375 0.9284999999999999 Q 5.3130146484375 0.9029999999999998 5.3325146484375 0.8504999999999998 Q 5.3520146484375 0.7979999999999998 5.3520146484375 0.7214999999999998 L 5.3520146484375 0.6854999999999998 Q 5.3520146484375 0.6089999999999999 5.3325146484375 0.5564999999999999 Q 5.3130146484375 0.5039999999999999 5.2717646484375 0.4777499999999999 Q 5.2305146484375005 0.4514999999999999 5.1615146484375 0.4514999999999999 Q 5.0940146484375 0.4514999999999999 5.0527646484375 0.4777499999999999 Q 5.0115146484375 0.5039999999999999 4.9920146484375 0.5564999999999999 Q 4.9725146484375 0.6089999999999999 4.9725146484375 0.6854999999999998 L 4.9725146484375 0.7214999999999998 Q 4.9725146484375 0.7979999999999998 4.9920146484375 0.8504999999999998 Q 5.0115146484375 0.9029999999999998 5.0527646484375 0.9284999999999999 Q 5.0940146484375 0.9539999999999998 5.1615146484375 0.9539999999999998 M 5.872478759765625 1.0979999999999999 L 5.624978759765625 0.30899999999999983 L 5.843978759765625 0.30899999999999983 L 5.942978759765625 0.6959999999999998 Q 5.950478759765625 0.7259999999999999 5.957228759765625 0.7604999999999998 Q 5.963978759765625 0.7949999999999999 5.969978759765625 0.8219999999999998 Q 5.975978759765625 0.8489999999999999 5.978978759765625 0.8609999999999999 L 5.989478759765625 0.8609999999999999 Q 5.995478759765625 0.8309999999999998 6.002228759765625 0.7987499999999998 Q 6.0089787597656255 0.7664999999999998 6.015728759765625 0.7372499999999998 Q 6.022478759765625 0.7079999999999999 6.025478759765625 0.6929999999999998 L 6.119978759765625 0.30899999999999983 L 6.3374787597656255 0.30899999999999983 L 6.434978759765625 0.6944999999999999 Q 6.440978759765625 0.7154999999999998 6.446978759765625 0.7462499999999999 Q 6.452978759765625 0.7769999999999999 6.460478759765625 0.8077499999999999 Q 6.467978759765625 0.8384999999999998 6.472478759765625 0.8609999999999999 L 6.481478759765625 0.8609999999999999 Q 6.484478759765625 0.8399999999999999 6.491228759765625 0.8114999999999999 Q 6.497978759765625 0.7829999999999999 6.504728759765625 0.7529999999999999 Q 6.511478759765625 0.7229999999999999 6.517478759765625 0.6989999999999998 L 6.614978759765625 0.30899999999999983 L 6.815978759765625 0.30899999999999983 L 6.569978759765625 1.0979999999999999 L 6.355478759765625 1.0979999999999999 L 6.268478759765625 0.7454999999999998 Q 6.262478759765625 0.7169999999999999 6.253478759765625 0.6817499999999999 Q 6.2444787597656255 0.6464999999999999 6.237728759765625 0.6119999999999999 Q 6.230978759765625 0.5774999999999999 6.226478759765625 0.5519999999999998 L 6.217478759765625 0.5519999999999998 Q 6.217478759765625 0.5654999999999999 6.211478759765625 0.5932499999999998 Q 6.205478759765625 0.6209999999999998 6.1972287597656255 0.6592499999999999 Q 6.188978759765625 0.6974999999999998 6.176978759765625 0.7454999999999998 L 6.086978759765625 1.0979999999999999 L 5.872478759765625 1.0979999999999999" fill="url(#gradient-7396c243-af1f-4c0c-b37b-df8141baad5a)" fill-rule="nonzero"></path></g><g></g></g><defs><clipPath id="SvgjsClipPath116250"><path d=" M -2.3378014652879284 -0.7234962602695538 h 1.9378014652879285 v 2.5449925205391075 h -1.9378014652879285 Z"></path></clipPath><clipPath id="SvgjsClipPath11624803ea6822-cd34-4d67-bcf1-d44a3841390e"><path d=" M -2.3378014652879284 -0.7234962602695538 L -0.3999999999999999 -0.7234962602695538 L -0.3999999999999999 1.8214962602695537 L -2.3378014652879284 1.8214962602695537 Z"></path></clipPath><linearGradient id="gradient-7396c243-af1f-4c0c-b37b-df8141baad5a" x1="0" y1="0" x2="1" y2="1"><stop stop-color="#51a8db" offset="0"></stop><stop stop-color="#3361e1" offset="1"></stop></linearGradient></defs></svg>