<svg width="24" height="24" viewBox="0 0 24 24" fill="none" xmlns="http://www.w3.org/2000/svg">
<path d="M13.6309 2.52342C13.1532 2.18297 12.5811 2 11.9944 2C11.4078 2 10.8357 2.18297 10.3579 2.52342C7.69594 4.52542 3.24194 8.52842 3.24194 13.2634C3.24194 19.6674 8.47694 22.0004 11.9999 22.0004C15.5229 22.0004 20.7579 19.6684 20.7579 13.2624C20.7579 8.53842 16.2939 4.50642 13.6309 2.52342ZM11.9999 19.2684C11.2098 19.2693 10.4272 19.1141 9.69719 18.8117C8.96717 18.5094 8.30406 18.0658 7.74594 17.5064C7.18785 16.9521 6.74562 16.2923 6.44501 15.5654C6.14439 14.8385 5.9914 14.059 5.99494 13.2724C5.99494 13.141 6.02082 13.0109 6.0711 12.8895C6.12138 12.7682 6.19508 12.6579 6.28798 12.565C6.38089 12.4721 6.49118 12.3984 6.61257 12.3481C6.73395 12.2978 6.86406 12.2719 6.99544 12.2719C7.12683 12.2719 7.25693 12.2978 7.37832 12.3481C7.4997 12.3984 7.61 12.4721 7.7029 12.565C7.79581 12.6579 7.8695 12.7682 7.91978 12.8895C7.97006 13.0109 7.99594 13.141 7.99594 13.2724C7.99214 13.7974 8.09384 14.3178 8.29499 14.8027C8.49615 15.2877 8.79266 15.7273 9.16694 16.0954C9.53905 16.4671 9.98081 16.7618 10.4669 16.9625C10.9531 17.1633 11.474 17.2662 11.9999 17.2654C12.2656 17.2654 12.5203 17.3709 12.7081 17.5588C12.8959 17.7466 13.0014 18.0013 13.0014 18.2669C13.0014 18.5325 12.8959 18.7873 12.7081 18.9751C12.5203 19.1629 12.2656 19.2684 11.9999 19.2684Z" fill="white"/>
</svg>

