<svg width="24" height="12" viewBox="0 0 24 12" fill="none" xmlns="http://www.w3.org/2000/svg">
<path d="M0 3C0 2.20435 0.316071 1.44129 0.87868 0.87868C1.44129 0.31607 2.20435 0 3 0H18C18.7957 0 19.5587 0.31607 20.1213 0.87868C20.6839 1.44129 21 2.20435 21 3V9C21 9.79565 20.6839 10.5587 20.1213 11.1213C19.5587 11.6839 18.7957 12 18 12H3C2.20435 12 1.44129 11.6839 0.87868 11.1213C0.316071 10.5587 0 9.79565 0 9V3ZM3 1.5C2.60218 1.5 2.22064 1.65804 1.93934 1.93934C1.65804 2.22064 1.5 2.60218 1.5 3V9C1.5 9.39783 1.65804 9.77936 1.93934 10.0607C2.22064 10.342 2.60218 10.5 3 10.5H18C18.3978 10.5 18.7794 10.342 19.0607 10.0607C19.342 9.77936 19.5 9.39783 19.5 9V3C19.5 2.60218 19.342 2.22064 19.0607 1.93934C18.7794 1.65804 18.3978 1.5 18 1.5H3ZM24 6C24 6.59674 23.7629 7.16903 23.341 7.59099C22.919 8.01295 22.3467 8.25 21.75 8.25V3.75C22.3467 3.75 22.919 3.98705 23.341 4.40901C23.7629 4.83097 24 5.40326 24 6Z" fill="#93D233"/>
</svg>
