<svg width="24" height="24" viewBox="0 0 24 24" fill="none" xmlns="http://www.w3.org/2000/svg">
<path fill-rule="evenodd" clip-rule="evenodd" d="M10.815 1.2C11.535 0.4425 12 0 12 0C12.164 0.544 12.3495 1.063 12.5565 1.557C13.7745 4.476 15.666 6.582 17.352 8.457C19.317 10.644 21 12.5175 21 15C21 17.3869 20.0518 19.6761 18.364 21.364C16.6761 23.0518 14.3869 24 12 24C9.61305 24 7.32387 23.0518 5.63604 21.364C3.94821 19.6761 3 17.3869 3 15C3 10.002 8.37 3.7755 10.815 1.2ZM11.4345 2.7315C10.4708 3.77356 9.55537 4.8592 8.691 5.985C7.602 7.41 6.537 8.997 5.751 10.59C4.956 12.1995 4.5 13.707 4.5 15C4.5 15 8.25 17.25 12 15.75C15.75 14.25 19.5 15 19.5 15C19.5 13.1985 18.306 11.7645 16.2285 9.45L16.1835 9.402C14.625 7.665 12.75 5.5815 11.4345 2.7315Z" fill="white"/>
<path fill-rule="evenodd" clip-rule="evenodd" d="M6.82959 11.664C8.05959 9.2025 9.40509 7.5345 9.96909 6.969L11.0311 8.031C10.5961 8.466 9.33909 9.9975 8.17059 12.336L6.82959 11.664Z" fill="white"/>
</svg>
