<svg width="12" height="12" viewBox="0 0 12 12" fill="none" xmlns="http://www.w3.org/2000/svg">
<path d="M9.75 2H8.25V1.25C8.25 1.1837 8.22366 1.12011 8.17678 1.07322C8.12989 1.02634 8.0663 1 8 1C7.9337 1 7.87011 1.02634 7.82322 1.07322C7.77634 1.12011 7.75 1.1837 7.75 1.25V2H4.25V1.25C4.25 1.1837 4.22366 1.12011 4.17678 1.07322C4.12989 1.02634 4.0663 1 4 1C3.9337 1 3.87011 1.02634 3.82322 1.07322C3.77634 1.12011 3.75 1.1837 3.75 1.25V2H2.25C1.9186 2.0004 1.60089 2.13222 1.36655 2.36655C1.13222 2.60089 1.0004 2.9186 1 3.25V9.75C1.0004 10.0814 1.13222 10.3991 1.36655 10.6334C1.60089 10.8678 1.9186 10.9996 2.25 11H9.75C10.0815 11 10.3995 10.8683 10.6339 10.6339C10.8683 10.3995 11 10.0815 11 9.75V3.25C11 2.91848 10.8683 2.60054 10.6339 2.36612C10.3995 2.1317 10.0815 2 9.75 2ZM10.5 9.75C10.5 9.94891 10.421 10.1397 10.2803 10.2803C10.1397 10.421 9.94891 10.5 9.75 10.5H2.25C2.05109 10.5 1.86032 10.421 1.71967 10.2803C1.57902 10.1397 1.5 9.94891 1.5 9.75V5.5H10.5V9.75ZM10.5 5H1.5V3.25C1.5 2.836 1.835 2.5 2.25 2.5H3.75V3.25C3.75 3.3163 3.77634 3.37989 3.82322 3.42678C3.87011 3.47366 3.9337 3.5 4 3.5C4.0663 3.5 4.12989 3.47366 4.17678 3.42678C4.22366 3.37989 4.25 3.3163 4.25 3.25V2.5H7.75V3.25C7.75 3.3163 7.77634 3.37989 7.82322 3.42678C7.87011 3.47366 7.9337 3.5 8 3.5C8.0663 3.5 8.12989 3.47366 8.17678 3.42678C8.22366 3.37989 8.25 3.3163 8.25 3.25V2.5H9.75C9.94891 2.5 10.1397 2.57902 10.2803 2.71967C10.421 2.86032 10.5 3.05109 10.5 3.25V5Z" fill="black" fill-opacity="0.8"/>
</svg>
