<svg width="24" height="24" viewBox="0 0 24 24" fill="none" xmlns="http://www.w3.org/2000/svg">
<path d="M7.06502 3.0555C6.95363 3.0555 6.8468 3.09975 6.76803 3.17851C6.68927 3.25728 6.64502 3.36411 6.64502 3.4755V4.173C6.64502 4.404 6.83402 4.593 7.06502 4.593C7.29602 4.593 7.48502 4.404 7.48502 4.173V3.4755C7.48502 3.36411 7.44077 3.25728 7.362 3.17851C7.28324 3.09975 7.17641 3.0555 7.06502 3.0555ZM8.66552 6.6C8.73582 6.67032 8.77532 6.76568 8.77532 6.86512C8.77532 6.96456 8.73582 7.05992 8.66552 7.13025L7.33052 8.46525C7.2957 8.50011 7.25436 8.52778 7.20885 8.54667C7.16334 8.56556 7.11456 8.57529 7.06529 8.57533C7.01601 8.57536 6.96721 8.56569 6.92168 8.54687C6.87614 8.52805 6.83476 8.50044 6.79989 8.46562C6.76503 8.4308 6.73736 8.38946 6.71847 8.34395C6.69959 8.29844 6.68985 8.24966 6.68981 8.20039C6.68978 8.15111 6.69945 8.10232 6.71827 8.05678C6.73709 8.01124 6.7647 7.96986 6.79952 7.935L8.13452 6.6C8.16935 6.56507 8.21074 6.53737 8.25629 6.51846C8.30185 6.49956 8.35069 6.48983 8.40002 6.48983C8.44935 6.48983 8.49819 6.49956 8.54375 6.51846C8.5893 6.53737 8.63069 6.56507 8.66552 6.6Z" fill="currentColor"/>
<path d="M7.06519 11.583C6.19519 11.583 5.32519 11.253 4.66519 10.593C4.03124 9.95664 3.67529 9.095 3.67529 8.19675C3.67529 7.29851 4.03124 6.43686 4.66519 5.8005C5.30155 5.16655 6.1632 4.8106 7.06144 4.8106C7.95969 4.8106 8.82133 5.16655 9.45769 5.8005C10.0916 6.43686 10.4476 7.29851 10.4476 8.19675C10.4476 9.095 10.0916 9.95664 9.45769 10.593C8.79769 11.253 7.93519 11.583 7.06519 11.583ZM7.06519 10.758C7.40105 10.758 7.73362 10.6919 8.04391 10.5633C8.3542 10.4348 8.63613 10.2464 8.87362 10.0089C9.1111 9.77144 9.29949 9.48951 9.42801 9.17922C9.55654 8.86893 9.62269 8.53636 9.62269 8.2005C9.62269 7.86465 9.55654 7.53208 9.42801 7.22179C9.29949 6.9115 9.1111 6.62956 8.87362 6.39208C8.63613 6.15459 8.3542 5.96621 8.04391 5.83768C7.73362 5.70915 7.40105 5.643 7.06519 5.643C6.3869 5.643 5.73639 5.91245 5.25677 6.39208C4.77714 6.8717 4.50769 7.52221 4.50769 8.2005C4.50769 8.87879 4.77714 9.5293 5.25677 10.0089C5.73639 10.4886 6.3869 10.758 7.06519 10.758ZM5.06794 3.9C5.04115 3.85032 5.00461 3.80654 4.96052 3.77129C4.91643 3.73604 4.86568 3.71004 4.81131 3.69485C4.75694 3.67966 4.70007 3.67558 4.64409 3.68286C4.58811 3.69014 4.53417 3.70864 4.4855 3.73723C4.43683 3.76583 4.39442 3.80395 4.36081 3.8493C4.3272 3.89466 4.30308 3.94633 4.28989 4.00122C4.2767 4.0561 4.27471 4.11309 4.28404 4.16876C4.29337 4.22444 4.31383 4.27766 4.34419 4.32525L4.69294 4.932L4.69669 4.9365C4.73577 4.99612 4.78891 5.04523 4.85142 5.07949C4.91393 5.11376 4.98391 5.13213 5.05519 5.133C5.12804 5.13358 5.19965 5.11412 5.26219 5.07675C5.3554 5.02033 5.42334 4.93024 5.45196 4.82511C5.48058 4.71999 5.46769 4.60788 5.41594 4.512L5.06794 3.9ZM9.05419 3.909C9.08097 3.86083 9.11714 3.8185 9.16055 3.78454C9.20396 3.75057 9.25374 3.72565 9.30695 3.71125C9.36015 3.69685 9.41571 3.69326 9.47032 3.70069C9.52494 3.70811 9.57752 3.72641 9.62494 3.7545C9.83269 3.8685 9.89494 4.1295 9.77719 4.3275L9.43369 4.92525C9.397 4.98792 9.34468 5.04 9.28185 5.07641C9.21901 5.11283 9.14781 5.13232 9.07519 5.133C9.00234 5.13195 8.93099 5.1121 8.86806 5.07537C8.80513 5.03863 8.75276 4.98627 8.71602 4.92335C8.67927 4.86043 8.65941 4.78908 8.65834 4.71622C8.65728 4.64337 8.67505 4.57147 8.70994 4.5075L9.05419 3.909ZM14.7527 8.2005C14.7527 8.10105 14.7922 8.00566 14.8625 7.93534C14.9329 7.86501 15.0282 7.8255 15.1277 7.8255H17.0177C17.1171 7.8255 17.2125 7.86501 17.2829 7.93534C17.3532 8.00566 17.3927 8.10105 17.3927 8.2005C17.3927 8.29996 17.3532 8.39534 17.2829 8.46567C17.2125 8.53599 17.1171 8.5755 17.0177 8.5755H15.1277C15.0282 8.5755 14.9329 8.53599 14.8625 8.46567C14.7922 8.39534 14.7527 8.29996 14.7527 8.2005Z" fill="currentColor"/>
<path d="M17.0174 11.5905C18.8849 11.5905 20.4074 10.068 20.4074 8.2005C20.4074 6.333 18.8849 4.8105 17.0174 4.8105C15.1499 4.8105 13.6274 6.333 13.6274 8.2005C13.6274 10.068 15.1499 11.5905 17.0174 11.5905ZM17.0174 10.758C16.6816 10.758 16.349 10.6919 16.0387 10.5633C15.7284 10.4348 15.4465 10.2464 15.209 10.0089C14.9715 9.77144 14.7831 9.48951 14.6546 9.17922C14.5261 8.86893 14.4599 8.53636 14.4599 8.2005C14.4599 7.86465 14.5261 7.53208 14.6546 7.22179C14.7831 6.9115 14.9715 6.62956 15.209 6.39208C15.4465 6.15459 15.7284 5.96621 16.0387 5.83768C16.349 5.70916 16.6816 5.643 17.0174 5.643C17.6957 5.643 18.3462 5.91245 18.8259 6.39208C19.3055 6.8717 19.5749 7.52221 19.5749 8.2005C19.5749 8.87879 19.3055 9.5293 18.8259 10.0089C18.3462 10.4886 17.6957 10.758 17.0174 10.758ZM16.5974 3.483C16.5974 3.252 16.7864 3.063 17.0174 3.063C17.2484 3.063 17.4374 3.252 17.4374 3.483V4.19175C17.4315 4.29949 17.3848 4.40093 17.3068 4.47546C17.2288 4.54999 17.1253 4.59202 17.0174 4.593C16.9061 4.593 16.7992 4.54875 16.7205 4.46999C16.6417 4.39122 16.5974 4.28439 16.5974 4.173V3.483ZM15.0202 3.9075C14.9926 3.8599 14.956 3.8182 14.9123 3.78481C14.8686 3.75141 14.8187 3.72698 14.7655 3.7129C14.7124 3.69883 14.6569 3.69539 14.6024 3.70278C14.5479 3.71018 14.4954 3.72827 14.4479 3.756C14.3549 3.81254 14.2871 3.90269 14.2586 4.00781C14.2301 4.11292 14.2431 4.22496 14.2949 4.32075L14.6459 4.932L14.6489 4.9365C14.688 4.99612 14.7412 5.04523 14.8037 5.07949C14.8662 5.11376 14.9362 5.13213 15.0074 5.133C15.0803 5.13358 15.1519 5.11412 15.2144 5.07675C15.3076 5.02033 15.3756 4.93024 15.4042 4.82511C15.4328 4.71999 15.4199 4.60788 15.3682 4.512L15.0202 3.9075ZM19.5847 3.7545C19.5373 3.72641 19.4847 3.70811 19.4301 3.70069C19.3755 3.69326 19.3199 3.69685 19.2667 3.71125C19.2135 3.72566 19.1637 3.75058 19.1203 3.78454C19.0769 3.81851 19.0407 3.86083 19.0139 3.909L18.6704 4.50525C18.6422 4.55208 18.6236 4.60405 18.6156 4.65813C18.6077 4.71222 18.6106 4.76735 18.6241 4.82032C18.6376 4.87329 18.6616 4.92304 18.6945 4.96667C18.7274 5.01031 18.7687 5.04696 18.8159 5.0745C18.8909 5.12475 18.9787 5.133 19.0274 5.133C19.0985 5.13088 19.168 5.11197 19.2303 5.07781C19.2926 5.04366 19.3459 4.99524 19.3859 4.9365L19.3897 4.932L19.7369 4.3275C19.7655 4.28012 19.7842 4.22749 19.792 4.17272C19.7998 4.11796 19.7965 4.06219 19.7823 4.00874C19.7681 3.95528 19.7432 3.90522 19.7093 3.86155C19.6754 3.81787 19.633 3.78147 19.5847 3.7545ZM8.94744 16.977H7.06494C6.96549 16.977 6.8701 17.0165 6.79978 17.0868C6.72945 17.1572 6.68994 17.2525 6.68994 17.352C6.68994 17.4515 6.72945 17.5468 6.79978 17.6172C6.8701 17.6875 6.96549 17.727 7.06494 17.727H8.94744C9.0469 17.727 9.14228 17.6875 9.21261 17.6172C9.28293 17.5468 9.32244 17.4515 9.32244 17.352C9.32244 17.2525 9.28293 17.1572 9.21261 17.0868C9.14228 17.0165 9.0469 16.977 8.94744 16.977Z" fill="currentColor"/>
<path d="M3.6748 17.352C3.6748 19.2195 5.1973 20.742 7.06481 20.742C8.93231 20.742 10.4548 19.2195 10.4548 17.352C10.4548 15.4845 8.93231 13.962 7.06481 13.962C5.1973 13.962 3.6748 15.4845 3.6748 17.352ZM9.6223 17.352C9.6223 17.6879 9.55615 18.0204 9.42763 18.3307C9.2991 18.641 9.11072 18.9229 8.87323 19.1604C8.63574 19.3979 8.35381 19.5863 8.04352 19.7148C7.73323 19.8433 7.40066 19.9095 7.06481 19.9095C6.72895 19.9095 6.39638 19.8433 6.08609 19.7148C5.7758 19.5863 5.49386 19.3979 5.25638 19.1604C5.01889 18.9229 4.83051 18.641 4.70198 18.3307C4.57346 18.0204 4.5073 17.6879 4.5073 17.352C4.5073 16.6737 4.77675 16.0232 5.25638 15.5436C5.736 15.064 6.38651 14.7945 7.06481 14.7945C7.7431 14.7945 8.39361 15.064 8.87323 15.5436C9.35285 16.0232 9.6223 16.6737 9.6223 17.352ZM7.06481 12.207C6.95341 12.207 6.84659 12.2513 6.76782 12.33C6.68905 12.4088 6.6448 12.5156 6.6448 12.627V13.3245C6.6448 13.5555 6.8338 13.7445 7.06481 13.7445C7.2958 13.7445 7.4848 13.5555 7.4848 13.3245V12.627C7.4848 12.5156 7.44056 12.4088 7.36179 12.33C7.28302 12.2513 7.1762 12.207 7.06481 12.207ZM4.5013 12.9045C4.59742 12.8524 4.70995 12.8393 4.81543 12.8681C4.92092 12.8969 5.01124 12.9653 5.06755 13.059L5.41555 13.6643C5.5183 13.8578 5.46055 14.1143 5.2618 14.229C5.19919 14.2661 5.12758 14.2853 5.0548 14.2845C4.98359 14.2837 4.91366 14.2655 4.85115 14.2313C4.78864 14.1972 4.73547 14.1482 4.6963 14.0888L4.69255 14.0835L4.34155 13.473C4.28949 13.3768 4.27657 13.2642 4.30549 13.1587C4.33442 13.0532 4.40295 12.9629 4.4968 12.9068L4.5013 12.9045ZM9.06131 13.0613C9.08809 13.0131 9.12425 12.9708 9.16766 12.9368C9.21108 12.9028 9.26086 12.8779 9.31406 12.8635C9.36727 12.8491 9.42282 12.8455 9.47744 12.8529C9.53205 12.8604 9.58463 12.8787 9.63206 12.9068C9.83981 13.02 9.90206 13.281 9.78431 13.4798L9.4378 14.0813C9.3798 14.1755 9.28734 14.2434 9.18008 14.2706C9.07281 14.2977 8.95917 14.282 8.86331 14.2268C8.81598 14.1992 8.77461 14.1625 8.7416 14.1188C8.7086 14.0751 8.68463 14.0253 8.67109 13.9722C8.65755 13.9192 8.6547 13.864 8.66272 13.8098C8.67074 13.7556 8.68947 13.7036 8.7178 13.6568L9.06131 13.0613ZM15.4176 15.7523C15.4879 15.682 15.5832 15.6425 15.6827 15.6425C15.7821 15.6425 15.8775 15.682 15.9478 15.7523L17.2828 17.0873C17.3511 17.158 17.3889 17.2527 17.3881 17.351C17.3872 17.4494 17.3478 17.5434 17.2782 17.6129C17.2087 17.6825 17.1147 17.7219 17.0163 17.7228C16.918 17.7236 16.8233 17.6858 16.7526 17.6175L15.4176 16.2825C15.3473 16.2122 15.3078 16.1168 15.3078 16.0174C15.3078 15.9179 15.3473 15.8226 15.4176 15.7523Z" fill="currentColor"/>
<path d="M17.0173 20.742C16.1473 20.742 15.2773 20.412 14.6173 19.752C13.9834 19.1156 13.6274 18.254 13.6274 17.3557C13.6274 16.4575 13.9834 15.5959 14.6173 14.9595C15.2537 14.3255 16.1153 13.9696 17.0136 13.9696C17.9118 13.9696 18.7735 14.3255 19.4098 14.9595C20.0438 15.5959 20.3997 16.4575 20.3997 17.3557C20.3997 18.254 20.0438 19.1156 19.4098 19.752C18.7498 20.412 17.8798 20.742 17.0173 20.742ZM17.0173 19.9095C17.6956 19.9095 18.3461 19.64 18.8258 19.1604C19.3054 18.6808 19.5748 18.0303 19.5748 17.352C19.5748 16.6737 19.3054 16.0232 18.8258 15.5436C18.3461 15.0639 17.6956 14.7945 17.0173 14.7945C16.3391 14.7945 15.6885 15.0639 15.2089 15.5436C14.7293 16.0232 14.4598 16.6737 14.4598 17.352C14.4598 18.0303 14.7293 18.6808 15.2089 19.1604C15.6885 19.64 16.3391 19.9095 17.0173 19.9095Z" fill="currentColor"/>
<path d="M16.5973 12.627C16.5973 12.396 16.7863 12.207 17.0173 12.207C17.2483 12.207 17.4373 12.396 17.4373 12.627V13.3358C17.4325 13.4446 17.3864 13.5475 17.3083 13.6234C17.2303 13.6994 17.1262 13.7427 17.0173 13.7445C16.9059 13.7445 16.7991 13.7003 16.7203 13.6215C16.6415 13.5427 16.5973 13.4359 16.5973 13.3245V12.627ZM15.02 13.059C14.9637 12.9653 14.8734 12.8969 14.7679 12.8681C14.6624 12.8393 14.5499 12.8524 14.4538 12.9045L14.4493 12.9068C14.3554 12.9629 14.2869 13.0533 14.2581 13.1588C14.2293 13.2643 14.2424 13.3769 14.2948 13.473L14.6458 14.0835L14.6488 14.0888C14.6879 14.1482 14.7411 14.1972 14.8036 14.2313C14.8661 14.2655 14.9361 14.2837 15.0073 14.2845C15.0801 14.2853 15.1517 14.2661 15.2143 14.229C15.3075 14.1726 15.3754 14.0825 15.404 13.9774C15.4327 13.8722 15.4198 13.7601 15.368 13.6643L15.02 13.059ZM19.5845 12.9068C19.5371 12.8787 19.4845 12.8604 19.4299 12.8529C19.3753 12.8455 19.3197 12.8491 19.2665 12.8635C19.2133 12.8779 19.1635 12.9028 19.1201 12.9368C19.0767 12.9708 19.0406 13.0131 19.0138 13.0613L18.6703 13.6575C18.6421 13.7043 18.6234 13.7563 18.6155 13.8104C18.6075 13.8645 18.6104 13.9196 18.6239 13.9726C18.6375 14.0255 18.6614 14.0753 18.6943 14.1189C18.7273 14.1626 18.7685 14.1992 18.8158 14.2268C18.8789 14.2666 18.9526 14.2868 19.0273 14.2845C19.0982 14.2825 19.1677 14.2637 19.23 14.2296C19.2923 14.1956 19.3457 14.1473 19.3858 14.0888L19.3895 14.0835L19.7368 13.4798C19.7653 13.4324 19.784 13.3797 19.7918 13.325C19.7996 13.2702 19.7963 13.2144 19.7821 13.161C19.7679 13.1075 19.7431 13.0575 19.7091 13.0138C19.6752 12.9701 19.6328 12.9337 19.5845 12.9068Z" fill="currentColor"/>
<path d="M0.75 4.3125C0.75 3.36767 1.12533 2.46153 1.79343 1.79343C2.46153 1.12533 3.36767 0.75 4.3125 0.75H19.7025C20.6473 0.75 21.5535 1.12533 22.2216 1.79343C22.8897 2.46153 23.265 3.36767 23.265 4.3125V19.6725C23.265 20.6173 22.8897 21.5235 22.2216 22.1916C21.5535 22.8597 20.6473 23.235 19.7025 23.235H4.3125C3.36767 23.235 2.46153 22.8597 1.79343 22.1916C1.12533 21.5235 0.75 20.6173 0.75 19.6725V4.3125ZM4.3125 2.25C3.76549 2.25 3.24089 2.4673 2.85409 2.85409C2.4673 3.24089 2.25 3.76549 2.25 4.3125V19.6725C2.25 20.2195 2.4673 20.7441 2.85409 21.1309C3.24089 21.5177 3.76549 21.735 4.3125 21.735H19.7025C20.2495 21.735 20.7741 21.5177 21.1609 21.1309C21.5477 20.7441 21.765 20.2195 21.765 19.6725V4.3125C21.765 3.76549 21.5477 3.24089 21.1609 2.85409C20.7741 2.4673 20.2495 2.25 19.7025 2.25H4.3125Z" fill="currentColor"/>
</svg>
