<svg width="116" height="29" viewBox="0 0 116 29" fill="none" xmlns="http://www.w3.org/2000/svg">
<path d="M14.0836 25.442C14.7514 25.333 15.4043 25.1617 16.0316 24.9308C19.9247 23.4933 22.3527 20.0091 22.0665 16.2707C21.7982 12.658 17.3467 8.3807 13.7768 4.95201C13.2451 4.44079 12.7301 3.94667 12.2584 3.48308C8.77686 6.89796 1.28078 12.2457 0 16.1362C0.327251 11.753 5.11329 7.15902 8.9454 3.47472C9.79666 2.65845 10.5947 1.888 11.3311 1.12808L12.2588 0.174011L13.1866 1.12808C13.9229 1.888 14.7206 2.65845 15.5718 3.4729C19.406 7.15721 24.1912 11.7512 24.5172 16.1344C24.9383 21.8013 20.4042 26.8099 14.0861 27.657V28.0424C14.0863 28.4741 13.6935 28.8246 13.2078 28.826H12.5382V24.5796H13.2054C13.6911 24.5812 14.0839 24.9317 14.0836 25.3635V25.442Z" fill="#2B59FF"/>
<path d="M10.4566 27.6607C7.84746 27.3202 5.43194 26.2395 3.57 24.5796C2.78714 23.8823 2.113 23.0949 1.56559 22.2384C0.91109 21.2261 0.595703 20.0568 0.595703 18.9151C0.595703 17.9167 0.841141 16.9248 1.32424 16.0525C1.82248 15.1436 2.57434 14.372 3.56714 13.8677C4.35213 13.4692 5.27702 13.2391 6.32668 13.2391V12.5897H6.87237C7.27013 12.5905 7.59243 12.8768 7.59355 13.2303V13.1725H9.55705V12.7057C9.55705 12.4057 9.54928 12.3853 10.0937 12.1672C10.6382 11.949 11.0714 11.5854 11.0714 11.08V10.2961H11.8752V9.19515H8.74261C8.42324 9.19436 8.1645 8.96454 8.16338 8.68067C8.1645 8.39674 8.42317 8.16681 8.74261 8.16582H15.7748C16.0942 8.16682 16.3527 8.3968 16.3536 8.68067C16.3527 8.96448 16.0941 9.19435 15.7748 9.19515H12.6402V10.2961H13.4456V11.08C13.4456 11.5843 13.8825 11.9527 14.4233 12.1672C14.9641 12.3817 14.96 12.4057 14.96 12.7057V13.1725H16.3136C18.419 13.1761 20.1248 14.6923 20.1289 16.5638V17.1226H20.0638C20.4609 17.1248 20.7822 17.4103 20.7846 17.7633V18.2472H16.8752V17.7633C16.8777 17.4103 17.1989 17.1248 17.596 17.1226H17.5309V16.5638C17.5262 15.9687 16.9847 15.4873 16.3152 15.4832H15.1191C14.6546 16.5262 13.5205 17.2112 12.2585 17.2112C10.9965 17.2112 9.86245 16.5262 9.39793 15.4832H7.59232V15.4253C7.5912 15.7785 7.26966 16.0646 6.87237 16.066H6.32668V15.4206C5.72495 15.4206 5.21116 15.5464 4.78533 15.7613C4.23309 16.0442 3.81135 16.4838 3.5201 17.0052C3.2133 17.5676 3.05213 18.2287 3.05213 18.9137C3.05213 19.691 3.26689 20.4771 3.70008 21.153C4.14069 21.8408 4.67777 22.4749 5.30607 23.0357C6.70831 24.2842 8.50418 25.1244 10.4558 25.4453V25.3635C10.4571 24.9312 10.8509 24.581 11.3373 24.5796H12.0045V28.826H11.3381C10.8518 28.8248 10.4579 28.4747 10.4566 28.0424V27.6607Z" fill="#2B59FF"/>
<path fill-rule="evenodd" clip-rule="evenodd" d="M7.22009 21.7472C7.11356 22.2632 6.80701 22.7298 6.3537 23.0659C6.57623 23.2332 6.8098 23.3932 7.04379 23.5386C7.11914 23.4773 7.19083 23.4124 7.25855 23.3444C7.89556 23.9757 8.80454 24.3363 9.75854 24.3363C10.7125 24.3363 11.6215 23.9757 12.2585 23.3444C12.8955 23.9757 13.8045 24.3363 14.7585 24.3363C15.7125 24.3363 16.6215 23.9757 17.2585 23.3444C17.3276 23.4124 17.4005 23.4771 17.4733 23.5386C17.7125 23.392 17.9429 23.2342 18.1634 23.0659C17.7085 22.731 17.4016 22.2639 17.297 21.7472H17.2217C17.0075 22.8062 15.9707 23.5768 14.7602 23.5768C13.5496 23.5768 12.5128 22.8062 12.2986 21.7472H12.2217C12.0075 22.8062 10.9707 23.5768 9.76017 23.5768C8.54963 23.5768 7.51286 22.8062 7.29863 21.7472H7.22009ZM7.22009 19.0613C7.00837 20.1216 5.97033 20.8935 4.75876 20.8916C4.60066 20.8916 4.44286 20.8794 4.28711 20.8553C4.37138 20.9916 4.46342 21.1243 4.56282 21.2574C4.66222 21.3905 4.76244 21.5232 4.86962 21.6526C5.78449 21.6275 6.64784 21.2704 7.25855 20.6644C7.89556 21.2956 8.80454 21.6562 9.75854 21.6562C10.7125 21.6562 11.6215 21.2956 12.2585 20.6644C12.8955 21.2956 13.8045 21.6562 14.7585 21.6562C15.7125 21.6562 16.6215 21.2956 17.2585 20.6644C17.8693 21.2703 18.7326 21.6274 19.6474 21.6526C19.7546 21.5232 19.8581 21.3905 19.9542 21.2574C20.0504 21.1243 20.1457 20.9916 20.2304 20.8553C20.0746 20.8794 19.9168 20.8915 19.7587 20.8916C18.547 20.8937 17.5087 20.1218 17.297 19.0613H17.2217C17.0075 20.1203 15.9707 20.8909 14.7602 20.8909C13.5496 20.8909 12.5128 20.1203 12.2986 19.0613H12.2217C12.0075 20.1203 10.9707 20.8909 9.76017 20.8909C8.54963 20.8909 7.51286 20.1203 7.29863 19.0613H7.22009Z" fill="#2B59FF"/>
<path d="M36.8875 20.8834C35.5322 20.8834 34.3733 20.6723 33.4107 20.2501C32.4481 19.8279 31.7166 19.1721 31.2163 18.2827C30.716 17.3933 30.4658 16.2619 30.4658 14.8884C30.4658 12.8619 31.0263 11.3562 32.1472 10.3711C33.2682 9.38597 34.8483 8.89343 36.8875 8.89343C38.0021 8.89343 39.0027 9.0623 39.8894 9.40004C40.776 9.73779 41.4758 10.2444 41.9888 10.9199C42.5017 11.5954 42.7582 12.4454 42.7582 13.4699H39.9084C39.9084 12.9295 39.7849 12.4735 39.5379 12.102C39.2909 11.7305 38.9426 11.4462 38.4929 11.2492C38.0433 11.0522 37.5208 10.9537 36.9255 10.9537C36.1149 10.9537 35.4467 11.0944 34.9211 11.3759C34.3955 11.6573 34.0091 12.071 33.7622 12.6171C33.5152 13.1631 33.3917 13.8301 33.3917 14.6182V15.1417C33.3917 15.9523 33.5183 16.6306 33.7717 17.1766C34.025 17.7226 34.4081 18.1336 34.9211 18.4094C35.4341 18.6852 36.0959 18.8231 36.9065 18.8231C37.5398 18.8231 38.0908 18.7274 38.5594 18.5361C39.0281 18.3447 39.3891 18.0632 39.6424 17.6917C39.8957 17.3202 40.0224 16.8642 40.0224 16.3238H42.7582C42.7582 17.3483 42.5081 18.1983 42.0078 18.8738C41.5075 19.5493 40.814 20.0531 39.9274 20.3852C39.0407 20.7173 38.0275 20.8834 36.8875 20.8834ZM44.7526 20.6807V8.47124H47.3935V20.6807H44.7526ZM54.3667 20.8834C53.2647 20.8834 52.3401 20.7173 51.5928 20.3852C50.8455 20.0531 50.2819 19.5437 49.9019 18.8569C49.5219 18.1702 49.3319 17.2977 49.3319 16.2394C49.3319 15.1699 49.5219 14.2945 49.9019 13.6134C50.2819 12.9323 50.8423 12.4257 51.5833 12.0936C52.3243 11.7614 53.2331 11.5954 54.3097 11.5954C55.323 11.5954 56.1779 11.7558 56.8745 12.0767C57.5712 12.3975 58.0968 12.8929 58.4515 13.5628C58.8061 14.2326 58.9834 15.0967 58.9834 16.1549V16.7629H52.0108C52.0361 17.2808 52.1279 17.7198 52.2863 18.0801C52.4446 18.4404 52.6916 18.7077 53.0272 18.8822C53.3629 19.0567 53.8094 19.144 54.3667 19.144C54.6707 19.144 54.9461 19.1102 55.1931 19.0427C55.4401 18.9751 55.6523 18.8738 55.8296 18.7387C56.0069 18.6036 56.1462 18.4347 56.2476 18.2321C56.3489 18.0294 56.3996 17.7986 56.3996 17.5397H58.9834C58.9834 18.1026 58.8694 18.5923 58.6415 19.0089C58.4135 19.4254 58.0968 19.7716 57.6915 20.0475C57.2862 20.3233 56.8017 20.5316 56.2381 20.6723C55.6744 20.813 55.0506 20.8834 54.3667 20.8834ZM52.0488 15.2768H56.2666C56.2666 14.9391 56.2191 14.6464 56.1241 14.3987C56.0291 14.151 55.8993 13.9483 55.7346 13.7907C55.5699 13.6331 55.3705 13.5177 55.1361 13.4445C54.9018 13.3714 54.639 13.3348 54.3477 13.3348C53.8664 13.3348 53.4642 13.4051 53.1412 13.5459C52.8182 13.6866 52.5713 13.9005 52.4003 14.1876C52.2293 14.4747 52.1121 14.8377 52.0488 15.2768ZM63.5619 20.8834C63.2326 20.8834 62.8811 20.8496 62.5075 20.7821C62.1338 20.7145 61.7823 20.5935 61.453 20.419C61.1237 20.2445 60.8546 19.9912 60.6456 19.6591C60.4366 19.3269 60.3321 18.9019 60.3321 18.3841C60.3321 17.7649 60.4841 17.2526 60.7881 16.8473C61.092 16.442 61.5259 16.124 62.0895 15.8932C62.6531 15.6624 63.3276 15.502 64.1129 15.4119C64.8982 15.3218 65.7658 15.2768 66.7158 15.2768V14.6182C66.7158 14.3593 66.6683 14.1341 66.5733 13.9427C66.4783 13.7513 66.3136 13.5993 66.0793 13.4868C65.845 13.3742 65.5188 13.3179 65.1009 13.3179C64.6829 13.3179 64.3441 13.3629 64.0844 13.453C63.8247 13.5431 63.6411 13.6584 63.5334 13.7992C63.4258 13.9399 63.3719 14.0947 63.3719 14.2636V14.4662H60.8071C60.7944 14.4099 60.7881 14.3565 60.7881 14.3058C60.7881 14.2551 60.7881 14.1904 60.7881 14.1116C60.7881 13.5937 60.9654 13.1462 61.32 12.7691C61.6747 12.3919 62.175 12.102 62.821 11.8994C63.4669 11.6967 64.2206 11.5954 65.0819 11.5954C66.0065 11.5954 66.7823 11.7023 67.4092 11.9162C68.0362 12.1302 68.5175 12.4454 68.8532 12.8619C69.1888 13.2785 69.3566 13.802 69.3566 14.4324V18.4685C69.3566 18.6712 69.4231 18.8203 69.5561 18.916C69.6891 19.0117 69.838 19.0596 70.0026 19.0596H70.6296V20.5963C70.5029 20.6526 70.3066 20.7117 70.0406 20.7736C69.7746 20.8355 69.4516 20.8665 69.0717 20.8665C68.7043 20.8665 68.3782 20.8186 68.0932 20.723C67.8082 20.6273 67.5707 20.4922 67.3807 20.3177C67.1908 20.1432 67.0578 19.9321 66.9818 19.6844H66.8488C66.6334 19.9208 66.3706 20.1291 66.0603 20.3092C65.75 20.4893 65.389 20.6301 64.9774 20.7314C64.5657 20.8327 64.0939 20.8834 63.5619 20.8834ZM64.4549 19.1102C64.8095 19.1102 65.1262 19.0624 65.4048 18.9667C65.6835 18.871 65.9178 18.7415 66.1078 18.5783C66.2978 18.415 66.4466 18.2152 66.5543 17.9788C66.6619 17.7424 66.7158 17.489 66.7158 17.2188V16.7291C66.0065 16.7291 65.3732 16.7713 64.8159 16.8558C64.2586 16.9402 63.8184 17.0837 63.4954 17.2864C63.1724 17.489 63.011 17.7705 63.011 18.1308C63.011 18.3334 63.0679 18.5079 63.1819 18.6543C63.2959 18.8006 63.4606 18.9132 63.6759 18.992C63.8912 19.0708 64.1509 19.1102 64.4549 19.1102ZM71.9408 20.6807V11.798H74.1257L74.3347 13.1828H74.4677C74.5944 12.8901 74.759 12.6227 74.9617 12.3806C75.1644 12.1386 75.4177 11.9444 75.7217 11.798C76.0257 11.6517 76.3803 11.5785 76.7856 11.5785C77.0009 11.5785 77.1973 11.5982 77.3746 11.6376C77.5519 11.677 77.6849 11.7136 77.7736 11.7474V13.8752H76.9566C76.564 13.8752 76.2188 13.923 75.9212 14.0187C75.6235 14.1144 75.3733 14.2636 75.1707 14.4662C74.968 14.6689 74.8192 14.9165 74.7242 15.2093C74.6292 15.502 74.5817 15.8453 74.5817 16.2394V20.6807H71.9408ZM79.6166 20.6807V13.605H78.1916V11.798H79.6166V10.8186C79.6166 10.3345 79.7084 9.90385 79.8921 9.5267C80.0757 9.14955 80.3702 8.85402 80.7755 8.64012C81.1808 8.42621 81.7191 8.31926 82.3904 8.31926C82.5804 8.31926 82.7799 8.33052 82.9889 8.35303C83.1979 8.37555 83.4006 8.40651 83.5969 8.44591C83.7932 8.48532 83.961 8.52754 84.1004 8.57257V10.1262H83.1504C82.8464 10.1262 82.6216 10.1937 82.4759 10.3288C82.3303 10.4639 82.2574 10.661 82.2574 10.9199V11.798H84.1004V13.605H82.2574V20.6807H79.6166ZM85.3353 20.6807V8.47124H87.9572V20.6807H85.3353ZM94.9869 20.8834C93.8976 20.8834 92.973 20.7173 92.213 20.3852C91.4531 20.0531 90.8768 19.5408 90.4841 18.8485C90.0915 18.1561 89.8951 17.2864 89.8951 16.2394C89.8951 15.1699 90.0915 14.2945 90.4841 13.6134C90.8768 12.9323 91.4531 12.4257 92.213 12.0936C92.973 11.7614 93.8976 11.5954 94.9869 11.5954C96.1015 11.5954 97.0356 11.7614 97.7893 12.0936C98.5429 12.4257 99.116 12.9323 99.5087 13.6134C99.9013 14.2945 100.098 15.1699 100.098 16.2394C100.098 17.2864 99.9013 18.1561 99.5087 18.8485C99.116 19.5408 98.5429 20.0531 97.7893 20.3852C97.0356 20.7173 96.1015 20.8834 94.9869 20.8834ZM94.9869 19.0596C95.5695 19.0596 96.035 18.9639 96.3833 18.7725C96.7316 18.5811 96.9881 18.2884 97.1528 17.8943C97.3175 17.5003 97.3998 17.0162 97.3998 16.442V16.0367C97.3998 15.4626 97.3175 14.9785 97.1528 14.5844C96.9881 14.1904 96.7316 13.8949 96.3833 13.6979C96.035 13.5008 95.5695 13.4023 94.9869 13.4023C94.4169 13.4023 93.9578 13.5008 93.6095 13.6979C93.2611 13.8949 93.0047 14.1904 92.84 14.5844C92.6753 14.9785 92.593 15.4626 92.593 16.0367V16.442C92.593 17.0162 92.6753 17.5003 92.84 17.8943C93.0047 18.2884 93.2611 18.5811 93.6095 18.7725C93.9578 18.9639 94.4169 19.0596 94.9869 19.0596ZM103.992 20.6807L100.857 11.798H103.631L104.885 16.1549C104.948 16.3801 105.008 16.6222 105.065 16.8811C105.122 17.14 105.176 17.3708 105.227 17.5735C105.278 17.7761 105.316 17.9225 105.341 18.0125H105.474C105.525 17.7874 105.578 17.5538 105.635 17.3117C105.692 17.0697 105.749 16.8389 105.806 16.6193C105.863 16.3998 105.905 16.2338 105.93 16.1212L107.127 11.798H109.882L111.117 16.1381C111.167 16.2957 111.218 16.4899 111.269 16.7207C111.319 16.9515 111.376 17.1823 111.44 17.413C111.503 17.6438 111.554 17.8437 111.592 18.0125H111.706C111.731 17.8549 111.772 17.6692 111.829 17.4553C111.886 17.2414 111.943 17.0218 112 16.7967C112.057 16.5715 112.111 16.3689 112.162 16.1887L113.397 11.798H115.942L112.827 20.6807H110.11L109.008 16.7122C108.957 16.4983 108.894 16.2591 108.818 15.9945C108.742 15.73 108.675 15.4682 108.618 15.2093C108.561 14.9503 108.514 14.7252 108.476 14.5338H108.362C108.362 14.6351 108.336 14.7899 108.286 14.9982C108.235 15.2064 108.175 15.4541 108.105 15.7412C108.036 16.0283 107.95 16.352 107.849 16.7122L106.709 20.6807H103.992Z" fill="#2B59FF"/>
</svg>
