<svg width="17" height="16" viewBox="0 0 17 16" fill="none" xmlns="http://www.w3.org/2000/svg">
<path d="M8.5 11.575C8.36667 11.575 8.24167 11.5543 8.125 11.513C8.00833 11.4717 7.9 11.4007 7.8 11.3L4.2 7.7C4 7.5 3.904 7.26667 3.912 7C3.92 6.73334 4.016 6.5 4.2 6.3C4.4 6.1 4.63767 5.996 4.913 5.988C5.18833 5.98 5.42567 6.07567 5.625 6.275L7.5 8.15V1C7.5 0.71667 7.596 0.479337 7.788 0.288004C7.98 0.0966702 8.21733 0.000670115 8.5 3.44827e-06C8.78267 -0.000663218 9.02033 0.0953369 9.213 0.288004C9.40567 0.48067 9.50133 0.718003 9.5 1V8.15L11.375 6.275C11.575 6.075 11.8127 5.979 12.088 5.987C12.3633 5.995 12.6007 6.09934 12.8 6.3C12.9833 6.5 13.0793 6.73334 13.088 7C13.0967 7.26667 13.0007 7.5 12.8 7.7L9.2 11.3C9.1 11.4 8.99167 11.471 8.875 11.513C8.75833 11.555 8.63333 11.5757 8.5 11.575ZM2.5 16C1.95 16 1.47933 15.8043 1.088 15.413C0.696666 15.0217 0.500667 14.5507 0.5 14V12C0.5 11.7167 0.596 11.4793 0.788 11.288C0.98 11.0967 1.21733 11.0007 1.5 11C1.78267 10.9993 2.02033 11.0953 2.213 11.288C2.40567 11.4807 2.50133 11.718 2.5 12V14H14.5V12C14.5 11.7167 14.596 11.4793 14.788 11.288C14.98 11.0967 15.2173 11.0007 15.5 11C15.7827 10.9993 16.0203 11.0953 16.213 11.288C16.4057 11.4807 16.5013 11.718 16.5 12V14C16.5 14.55 16.3043 15.021 15.913 15.413C15.5217 15.805 15.0507 16.0007 14.5 16H2.5Z" fill="white"/>
</svg>
