<svg width="25" height="24" viewBox="0 0 25 24" fill="none" xmlns="http://www.w3.org/2000/svg">
<path d="M10.2499 3.104V8.818C10.2499 9.11348 10.1917 9.40606 10.0786 9.67904C9.96554 9.95203 9.79981 10.2001 9.59088 10.409L5.49988 14.5M10.2499 3.104C9.99921 3.12667 9.74921 3.154 9.49988 3.186M10.2499 3.104C11.7467 2.96481 13.2531 2.96481 14.7499 3.104M5.49988 14.5L6.26988 14.307C8.36291 13.7902 10.5716 14.0359 12.4999 15C14.4282 15.9641 16.6368 16.2098 18.7299 15.693L20.2999 15.3M5.49988 14.5L3.29788 16.703C2.06488 17.934 2.64688 20.02 4.36488 20.313C7.05212 20.7726 9.77362 21.0024 12.4999 21C15.2261 21.001 17.9475 20.7712 20.6349 20.313C22.3519 20.02 22.9339 17.934 21.7019 16.702L20.2999 15.3M14.7499 3.104V8.818C14.7499 9.415 14.9869 9.988 15.4089 10.409L20.2999 15.3M14.7499 3.104C15.0012 3.12667 15.2512 3.154 15.4999 3.186" stroke="white" stroke-width="1.5" stroke-linecap="round" stroke-linejoin="round"/>
</svg>
