<svg width="20" height="25" viewBox="0 0 20 25" fill="none" xmlns="http://www.w3.org/2000/svg">
<path d="M12.4729 1.56475L10.3303 10.84L18.0924 10.8616L7.52675 23.4356L9.66941 13.2313L1.90779 13.209L12.4729 1.56475ZM12.4744 4.88984e-05C12.4231 4.88984e-05 12.3719 0.00158917 12.3215 0.00469417C11.9863 0.0270159 11.7641 0.119334 11.5007 0.265245C11.3523 0.346741 11.2185 0.44497 11.1033 0.557065C11.0687 0.590716 11.036 0.6257 11.0054 0.661902L0.364297 12.2655C-0.0558785 12.74 -0.117599 13.3663 0.205248 13.8897C0.52762 14.4131 1.17949 14.7448 1.89402 14.7491L7.37578 14.782L5.65234 23.1482C5.48854 23.8671 5.95382 24.5838 6.77281 24.8725C7.01082 24.9567 7.26719 25.0001 7.52625 25C8.12304 25 8.61348 24.77 8.98146 24.3546L19.6359 11.7804C20.0561 11.3059 20.1173 10.6788 19.7949 10.1562C19.4726 9.63282 18.8207 9.30107 18.1062 9.29679L12.6244 9.28897L14.3293 1.93282C14.3655 1.81239 14.3836 1.68878 14.3835 1.56472C14.3835 0.718207 13.5654 0.028165 12.5418 0.000782361C12.519 0 12.4967 0 12.4744 0L12.4744 4.88984e-05Z" fill="white"/>
</svg>
