<svg width="24" height="24" viewBox="0 0 24 24" fill="none" xmlns="http://www.w3.org/2000/svg">
<path d="M11.9995 18V12.75M11.9995 12.75C12.5055 12.7505 13.0095 12.687 13.4995 12.561M11.9995 12.75C11.4936 12.7505 10.9896 12.687 10.4995 12.561M14.2495 20.039C12.7627 20.3204 11.2363 20.3204 9.74953 20.039M13.4995 22.422C12.5023 22.5264 11.4968 22.5264 10.4995 22.422M14.2495 18V17.808C14.2495 16.825 14.9075 15.985 15.7575 15.492C17.1855 14.665 18.3009 13.3902 18.9309 11.865C19.5609 10.3399 19.6703 8.64948 19.2422 7.05582C18.8141 5.46217 17.8723 4.05419 16.5628 3.05006C15.2533 2.04594 13.6492 1.50171 11.999 1.50171C10.3489 1.50171 8.74476 2.04594 7.43526 3.05006C6.12577 4.05419 5.18399 5.46217 4.75585 7.05582C4.32772 8.64948 4.43712 10.3399 5.06711 11.865C5.69711 13.3902 6.81252 14.665 8.24053 15.492C9.09053 15.985 9.74953 16.825 9.74953 17.808V18" stroke="white" stroke-width="1.5" stroke-linecap="round" stroke-linejoin="round"/>
</svg>
