<svg width="37" height="38" viewBox="0 0 37 38" fill="none" xmlns="http://www.w3.org/2000/svg">
<path d="M33.483 20.21C33.1891 19.8754 33.027 19.4453 33.027 19C33.027 18.5547 33.1891 18.1246 33.483 17.79L35.8296 15.15C36.0882 14.8616 36.2488 14.4986 36.2883 14.1133C36.3279 13.7279 36.2443 13.3399 36.0496 13.005L32.383 6.66166C32.1903 6.32712 31.8969 6.06194 31.5447 5.90392C31.1924 5.7459 30.7993 5.70312 30.4213 5.78166L26.9746 6.47833C26.5361 6.56895 26.0795 6.49591 25.6911 6.273C25.3027 6.05008 25.0093 5.69272 24.8663 5.26833L23.748 1.91333C23.625 1.54919 23.3907 1.23292 23.0781 1.00921C22.7656 0.785497 22.3907 0.66567 22.0063 0.666663H14.673C14.2732 0.645795 13.8776 0.756361 13.5465 0.981472C13.2155 1.20658 12.9672 1.53386 12.8396 1.91333L11.813 5.26833C11.67 5.69272 11.3766 6.05008 10.9882 6.273C10.5998 6.49591 10.1432 6.56895 9.70465 6.47833L6.16631 5.78166C5.80799 5.73103 5.4427 5.78757 5.11645 5.94417C4.7902 6.10077 4.5176 6.35041 4.33298 6.66166L0.666314 13.005C0.466774 13.3362 0.377054 13.722 0.409982 14.1072C0.442909 14.4925 0.596798 14.8575 0.849647 15.15L3.17798 17.79C3.4719 18.1246 3.63399 18.5547 3.63399 19C3.63399 19.4453 3.4719 19.8754 3.17798 20.21L0.849647 22.85C0.596798 23.1425 0.442909 23.5075 0.409982 23.8928C0.377054 24.278 0.466774 24.6638 0.666314 24.995L4.33298 31.3383C4.52566 31.6729 4.81903 31.9381 5.17128 32.0961C5.52352 32.2541 5.91666 32.2969 6.29465 32.2183L9.74131 31.5217C10.1799 31.431 10.6364 31.5041 11.0249 31.727C11.4133 31.9499 11.7066 32.3073 11.8496 32.7317L12.968 36.0867C13.0955 36.4661 13.3438 36.7934 13.6749 37.0185C14.0059 37.2436 14.4015 37.3542 14.8013 37.3333H22.1346C22.519 37.3343 22.8939 37.2145 23.2065 36.9908C23.519 36.7671 23.7533 36.4508 23.8763 36.0867L24.9946 32.7317C25.1376 32.3073 25.431 31.9499 25.8194 31.727C26.2078 31.5041 26.6644 31.431 27.103 31.5217L30.5496 32.2183C30.9276 32.2969 31.3208 32.2541 31.673 32.0961C32.0253 31.9381 32.3186 31.6729 32.5113 31.3383L36.178 24.995C36.3726 24.6601 36.4562 24.2721 36.4167 23.8867C36.3771 23.5014 36.2166 23.1384 35.958 22.85L33.483 20.21ZM30.7513 22.6667L32.218 24.3167L29.8713 28.3867L27.708 27.9467C26.3876 27.6768 25.014 27.901 23.8481 28.577C22.6821 29.2529 21.8049 30.3334 21.383 31.6133L20.6863 33.6667H15.993L15.333 31.5767C14.911 30.2967 14.0338 29.2162 12.8679 28.5403C11.7019 27.8644 10.3284 27.6401 9.00798 27.91L6.84465 28.35L4.46131 24.2983L5.92798 22.6483C6.8299 21.64 7.32852 20.3345 7.32852 18.9817C7.32852 17.6288 6.8299 16.3234 5.92798 15.315L4.46131 13.665L6.80798 9.63166L8.97131 10.0717C10.2917 10.3416 11.6653 10.1173 12.8312 9.44136C13.9972 8.76544 14.8744 7.68495 15.2963 6.405L15.993 4.33333H20.6863L21.383 6.42333C21.8049 7.70329 22.6821 8.78378 23.8481 9.45969C25.014 10.1356 26.3876 10.3599 27.708 10.09L29.8713 9.65L32.218 13.72L30.7513 15.37C29.8595 16.3761 29.3671 17.6739 29.3671 19.0183C29.3671 20.3627 29.8595 21.6606 30.7513 22.6667ZM18.3396 11.6667C16.8892 11.6667 15.4714 12.0968 14.2655 12.9026C13.0595 13.7084 12.1196 14.8537 11.5645 16.1937C11.0095 17.5336 10.8643 19.0081 11.1472 20.4307C11.4302 21.8532 12.1286 23.1599 13.1542 24.1854C14.1798 25.211 15.4865 25.9095 16.909 26.1924C18.3315 26.4754 19.806 26.3302 21.146 25.7751C22.486 25.2201 23.6313 24.2801 24.4371 23.0742C25.2429 21.8682 25.673 20.4504 25.673 19C25.673 17.0551 24.9004 15.1898 23.5251 13.8145C22.1498 12.4393 20.2846 11.6667 18.3396 11.6667ZM18.3396 22.6667C17.6144 22.6667 16.9055 22.4516 16.3026 22.0487C15.6996 21.6458 15.2296 21.0732 14.9521 20.4032C14.6746 19.7332 14.602 18.9959 14.7434 18.2847C14.8849 17.5734 15.2341 16.9201 15.7469 16.4073C16.2597 15.8945 16.9131 15.5453 17.6243 15.4038C18.3356 15.2623 19.0728 15.3349 19.7428 15.6124C20.4128 15.89 20.9855 16.3599 21.3884 16.9629C21.7913 17.5659 22.0063 18.2748 22.0063 19C22.0063 19.9725 21.62 20.9051 20.9324 21.5927C20.2447 22.2804 19.3121 22.6667 18.3396 22.6667Z" fill="#737373"/>
</svg>
