<svg width="24" height="24" viewBox="0 0 24 24" fill="none" xmlns="http://www.w3.org/2000/svg">
<path d="M17.3496 12.7899C17.1682 12.7906 16.9932 12.7227 16.8596 12.5999C15.5318 11.4108 13.8121 10.7533 12.0296 10.7533C10.2472 10.7533 8.52744 11.4108 7.19964 12.5999C7.12614 12.6657 7.0404 12.7163 6.94732 12.7489C6.85424 12.7814 6.75565 12.7953 6.65719 12.7898C6.55874 12.7842 6.46235 12.7593 6.37354 12.7164C6.28473 12.6735 6.20524 12.6136 6.13964 12.5399C6.01055 12.3891 5.9456 12.1938 5.95868 11.9957C5.97177 11.7976 6.06184 11.6125 6.20964 11.4799C7.80717 10.0421 9.88037 9.24658 12.0296 9.24658C14.1789 9.24658 16.2521 10.0421 17.8496 11.4799C17.9974 11.6125 18.0875 11.7976 18.1006 11.9957C18.1137 12.1938 18.0487 12.3891 17.9196 12.5399C17.8462 12.6176 17.7578 12.6797 17.6599 12.7226C17.562 12.7656 17.4565 12.7885 17.3496 12.7899Z" fill="#93D233"/>
<path d="M20 9.99996C19.8111 9.99901 19.6292 9.92771 19.49 9.79996C17.4685 7.873 14.7828 6.79805 11.99 6.79805C9.1972 6.79805 6.51154 7.873 4.49001 9.79996C4.42118 9.8818 4.33564 9.94798 4.23914 9.99405C4.14264 10.0401 4.03739 10.065 3.93048 10.0671C3.82356 10.0692 3.71744 10.0483 3.61923 10.006C3.52102 9.96369 3.43299 9.90086 3.36106 9.82173C3.28913 9.7426 3.23495 9.64901 3.20215 9.54722C3.16936 9.44544 3.15871 9.33782 3.17092 9.23158C3.18313 9.12534 3.21792 9.02294 3.27296 8.93125C3.32799 8.83956 3.402 8.7607 3.49001 8.69996C5.78578 6.52527 8.82776 5.31323 11.99 5.31323C15.1523 5.31323 18.1942 6.52527 20.49 8.69996C20.5994 8.80128 20.6761 8.93292 20.7104 9.07804C20.7446 9.22317 20.7348 9.37521 20.6822 9.51474C20.6296 9.65427 20.5366 9.77496 20.4151 9.86139C20.2936 9.94781 20.1491 9.99606 20 9.99996ZM9.38001 15.64C9.26358 15.64 9.14874 15.6129 9.0446 15.5608C8.94046 15.5087 8.84987 15.4331 8.78001 15.34C8.71961 15.2617 8.67552 15.1721 8.65033 15.0765C8.62514 14.9809 8.61937 14.8812 8.63335 14.7833C8.64733 14.6854 8.68079 14.5913 8.73174 14.5066C8.78269 14.4219 8.85011 14.3482 8.93001 14.29C9.81278 13.6144 10.8934 13.2484 12.005 13.2484C13.1166 13.2484 14.1972 13.6144 15.08 14.29C15.1588 14.3491 15.2252 14.4231 15.2754 14.5078C15.3255 14.5926 15.3585 14.6864 15.3725 14.7839C15.3864 14.8814 15.381 14.9807 15.3565 15.0761C15.3321 15.1715 15.2891 15.2612 15.23 15.34C15.1091 15.4969 14.9316 15.6004 14.7355 15.6284C14.5394 15.6564 14.34 15.6068 14.18 15.49C13.5549 15.0139 12.7908 14.7561 12.005 14.7561C11.2192 14.7561 10.4552 15.0139 9.83001 15.49C9.69862 15.5843 9.54172 15.6366 9.38001 15.64ZM12 18.75C11.8011 18.75 11.6103 18.6709 11.4697 18.5303C11.329 18.3896 11.25 18.1989 11.25 18C11.25 17.801 11.329 17.6103 11.4697 17.4696C11.6103 17.329 11.8011 17.25 12 17.25C12.1989 17.25 12.3897 17.329 12.5303 17.4696C12.671 17.6103 12.75 17.801 12.75 18C12.75 18.1989 12.671 18.3896 12.5303 18.5303C12.3897 18.6709 12.1989 18.75 12 18.75Z" fill="#93D233"/>
</svg>
