<svg width="21" height="21" viewBox="0 0 21 21" fill="none" xmlns="http://www.w3.org/2000/svg">
<path d="M9.69082 2.562C10.5306 1.72245 11.5942 1.14218 12.7547 0.890402C13.9152 0.638623 15.1236 0.725962 16.2358 1.142C16.6138 1.283 16.6858 1.762 16.4008 2.048L13.6138 4.835C13.5175 4.9313 13.441 5.04565 13.3889 5.17151C13.3367 5.29737 13.3099 5.43227 13.3099 5.5685C13.3099 5.70474 13.3367 5.83964 13.3889 5.96549C13.441 6.09135 13.5175 6.2057 13.6138 6.302L14.6978 7.386C14.7941 7.48236 14.9085 7.55881 15.0343 7.61096C15.1602 7.66312 15.2951 7.68996 15.4313 7.68996C15.5676 7.68996 15.7025 7.66312 15.8283 7.61096C15.9542 7.55881 16.0685 7.48236 16.1648 7.386L18.9528 4.6C19.2378 4.315 19.7168 4.388 19.8578 4.765C20.266 5.8545 20.3587 7.03702 20.1254 8.17683C19.892 9.31664 19.3419 10.3675 18.5383 11.2089C17.7348 12.0503 16.7102 12.648 15.5823 12.9335C14.4545 13.219 13.2689 13.1807 12.1618 12.823C11.7658 12.695 11.3218 12.769 11.0278 13.063L5.48082 18.61C5.28031 18.8233 5.03899 18.9941 4.77119 19.1124C4.5034 19.2306 4.21457 19.2939 3.92186 19.2984C3.62915 19.3029 3.33852 19.2486 3.0672 19.1387C2.79589 19.0287 2.54941 18.8654 2.34241 18.6584C2.13541 18.4514 1.9721 18.2049 1.86216 17.9336C1.75222 17.6623 1.69789 17.3717 1.70241 17.079C1.70692 16.7863 1.77019 16.4974 1.88844 16.2296C2.0067 15.9618 2.17754 15.7205 2.39082 15.52L7.93782 9.972C8.23182 9.678 8.30582 9.234 8.17782 8.838C7.82817 7.75396 7.78441 6.59445 8.05136 5.48714C8.31831 4.37982 8.88561 3.36763 9.69082 2.562Z" stroke="currentColor" stroke-width="1.5" stroke-linejoin="round"/>
</svg>
