<svg width="11" height="15" viewBox="0 0 11 15" fill="none" xmlns="http://www.w3.org/2000/svg">
<path d="M6.7208 0.948013L5.66308 6.50529L9.49487 6.51818L4.27909 14.0519L5.33683 7.93801L1.50527 7.92465L6.7208 0.948013ZM6.72152 0.0105273C6.6962 0.0105273 6.67091 0.0114502 6.64606 0.0133105C6.48059 0.0266846 6.37089 0.0819971 6.24083 0.169419C6.16759 0.218247 6.10156 0.277101 6.04466 0.344263C6.02757 0.364424 6.01146 0.385385 5.99636 0.407075L0.743314 7.35934C0.535892 7.64364 0.505423 8.01889 0.664798 8.33248C0.823939 8.64608 1.14574 8.84482 1.49847 8.8474L4.20456 8.86709L3.35378 13.8797C3.27292 14.3105 3.50261 14.7398 3.90691 14.9128C4.0244 14.9633 4.15096 14.9893 4.27885 14.9892C4.57346 14.9892 4.81556 14.8514 4.99722 14.6025L10.2568 7.06872C10.4643 6.7844 10.4945 6.4087 10.3353 6.09558C10.1762 5.78198 9.85441 5.58322 9.50167 5.58065L6.79558 5.57597L7.63722 1.16855C7.65505 1.09639 7.66403 1.02233 7.66395 0.947998C7.66395 0.440811 7.26011 0.027373 6.7548 0.0109668C6.74356 0.010498 6.73253 0.010498 6.72153 0.010498L6.72152 0.0105273Z" fill="#8BCE23"/>
</svg>
