<svg width="22" height="16" viewBox="0 0 22 16" fill="none" xmlns="http://www.w3.org/2000/svg">
<path d="M8 16C7.68334 16 7.4 15.9083 7.15 15.725C6.9 15.5417 6.71667 15.3083 6.6 15.025L4.3 9H1C0.71667 9 0.479337 8.904 0.288003 8.712C0.0966701 8.52 0.000670115 8.28267 3.44828e-06 8C-0.000663218 7.71733 0.0953368 7.48 0.288003 7.288C0.48067 7.096 0.718003 7 1 7H5C5.21667 7 5.40434 7.05833 5.563 7.175C5.72167 7.29167 5.84234 7.45 5.925 7.65L8 13.1L12.6 0.975C12.7167 0.691667 12.9 0.458333 13.15 0.275C13.4 0.0916668 13.6833 0 14 0C14.3167 0 14.6 0.0916668 14.85 0.275C15.1 0.458333 15.2833 0.691667 15.4 0.975L17.7 7H21C21.2833 7 21.521 7.096 21.713 7.288C21.905 7.48 22.0007 7.71733 22 8C21.9993 8.28267 21.9033 8.52033 21.712 8.713C21.5207 8.90567 21.2833 9.00133 21 9H17C16.7833 9 16.596 8.94167 16.438 8.825C16.28 8.70833 16.159 8.55 16.075 8.35L14 2.9L9.4 15.025C9.28334 15.3083 9.1 15.5417 8.85 15.725C8.6 15.9083 8.31667 16 8 16Z" fill="white"/>
</svg>
