<svg width="15" height="14" viewBox="0 0 15 14" fill="none" xmlns="http://www.w3.org/2000/svg">
<path d="M0.872367 13.3728C0.742551 13.3728 0.624536 13.3404 0.518323 13.2758C0.41211 13.2111 0.3295 13.1254 0.270493 13.0187C0.211486 12.912 0.17915 12.7969 0.173485 12.6732C0.16782 12.5495 0.200156 12.4286 0.270493 12.3106L6.8203 0.981241C6.89111 0.863226 6.98269 0.774715 7.09504 0.715708C7.20739 0.656701 7.32233 0.627197 7.43987 0.627197C7.55742 0.627197 7.6726 0.656701 7.78542 0.715708C7.89824 0.774715 7.98959 0.863226 8.05945 0.981241L14.6093 12.3106C14.6801 12.4286 14.7126 12.5497 14.707 12.6739C14.7013 12.798 14.6687 12.913 14.6093 13.0187C14.5498 13.1245 14.4672 13.2101 14.3614 13.2758C14.2557 13.3414 14.1377 13.3737 14.0074 13.3728H0.872367ZM2.09382 11.9566H12.7859L7.43987 2.75146L2.09382 11.9566ZM7.43987 11.2485C7.6405 11.2485 7.80879 11.1805 7.94474 11.0446C8.08069 10.9086 8.14843 10.7406 8.14796 10.5404C8.14749 10.3403 8.07951 10.1722 7.94403 10.0363C7.80855 9.90031 7.6405 9.83233 7.43987 9.83233C7.23925 9.83233 7.0712 9.90031 6.93572 10.0363C6.80024 10.1722 6.73226 10.3403 6.73179 10.5404C6.73132 10.7406 6.79929 10.9089 6.93572 11.0453C7.07214 11.1817 7.24019 11.2494 7.43987 11.2485ZM7.43987 9.12424C7.6405 9.12424 7.80879 9.05627 7.94474 8.92031C8.08069 8.78436 8.14843 8.61631 8.14796 8.41616V6.29189C8.14796 6.09127 8.07999 5.92322 7.94403 5.78774C7.80808 5.65226 7.64003 5.58428 7.43987 5.58381C7.23972 5.58333 7.07167 5.65131 6.93572 5.78774C6.79976 5.92416 6.73179 6.09221 6.73179 6.29189V8.41616C6.73179 8.61678 6.79976 8.78507 6.93572 8.92102C7.07167 9.05697 7.23972 9.12471 7.43987 9.12424Z" fill="#F59F0E"/>
</svg>
